<?xml version="1.0" encoding="utf-8"?>
<!-- Generator: Adobe Illustrator 19.0.0, SVG Export Plug-In . SVG Version: 6.00 Build 0)  -->
<svg version="1.1" id="Layer_1" xmlns="http://www.w3.org/2000/svg" xmlns:xlink="http://www.w3.org/1999/xlink" x="0px" y="0px"
	 viewBox="-1126 671 306.5 100" style="enable-background:new -1126 671 306.5 100;" xml:space="preserve">
<style type="text/css">
	.st0{fill:url(#SVGID_1_);}
</style>
<radialGradient id="SVGID_1_" cx="-1017.4978" cy="1576.4148" r="248.1015" gradientTransform="matrix(1 0 0 0.5445 0 -182.5978)" gradientUnits="userSpaceOnUse">
	<stop  offset="0" style="stop-color:#3F80F4"/>
	<stop  offset="1" style="stop-color:#103EDA"/>
</radialGradient>
<path class="st0" d="M-1113.7,719.8c1.4-1.6,3.1-3.6,5.4-3.6c2.7,0,3.6,2.7,4.1,4.9c0.6,3.1,0.8,6.7,2.2,9.6
	c0.2,0.3,0.4,0.6,0.7,0.7c0.3,0.1,0.7,0.2,1.2,0.2c0.6,0,1.2-0.1,1.8-0.3c4.6-1.6,7.4-7.2,10.6-10.5c1.3-1.4,2.6-2.6,3.8-3.8
	c0.6-0.6,1.3-1.3,2.2-2.3c0.9-0.9,1.9-2,3-3.2c1.2-0.5,2.4-1,3.8-1.5c0.9,0,1.5,0.3,1.9,0.8c0.4,0.6,0.6,1.4,0.6,2.4
	c0,0.9-0.1,1.9-0.2,2.9c-0.1,1-0.3,2.1-0.6,3.2c-0.3,0.9-0.5,1.7-0.7,2.5c0,0.2,0,0.4,0.1,0.5s0.3,0.2,0.5,0.2
	c0.5-0.2,1.4-1,2.8-2.4c1.4-1.4,3.2-3.3,5.5-5.8c1.9-2.1,3.6-3.7,5.1-4.8s2.6-1.6,3.5-1.6c0.9,0,1.6,0.3,2.1,1
	c0.4,0.7,0.6,1.7,0.6,3.1c0,2-0.1,3.9-0.4,5.7c-0.3,1.8-0.8,3.6-1.5,5.3c-0.1,0.3-0.2,0.6-0.2,0.8s0,0.4,0,0.6
	c0,0.2,0.2,0.4,0.6,0.6c0.3-0.2,0.6-0.5,0.9-1c0.3-0.4,0.7-1,1.2-1.6c0.7-0.6,1.5-1.2,2.2-1.8s1.5-1.2,2.4-1.9s1.8-1.3,2.8-1.6
	c0.9-0.4,1.9-0.6,2.8-0.6c0.2,0,0.3,0.1,0.5,0.1c0.2,0.1,0.3,0.2,0.5,0.3c0.7,0.6,1.3,1.2,1.8,1.8c0.5,0.5,0.8,1,1,1.4
	c1.3,2.6,2.4,4.5,3.4,5.8s1.8,1.9,2.6,1.9c0.2,0,0.3-0.1,0.5-0.1c4-1.1,4.5-7.6,4.6-9.7c0-0.8-0.1-1.6-0.2-2.4c0-0.5-0.1-1-0.2-1.5
	c-0.1-0.5-0.2-1-0.2-1.5c-0.1-0.5-0.2-1-0.3-1.6l-0.2-0.8c-0.1-0.2-0.1-0.5-0.2-0.8c-0.1-0.5-0.3-1-0.4-1.5c-0.1-0.5-0.3-1-0.5-1.5
	c-0.3-1-0.7-2-1-3.1c-0.8-2-1.7-4-2.8-6c-0.5-1-1.1-1.9-1.7-2.9c-0.3-0.5-0.6-0.9-0.9-1.4l-0.4-0.7l-0.5-0.7c-2.7-3.6-5.9-7-9.6-9.8
	c-1.8-1.4-3.8-2.7-5.8-3.9c-2-1.2-4.2-2.1-6.4-3c-2.2-0.9-4.5-1.6-6.8-2.1c-2.3-0.5-4.6-0.9-6.9-1.1c0,0-0.1,0-0.2,0
	c-0.1,0-0.2,0-0.3,0c-0.3,0-0.6,0-0.8,0c-2-0.1-4-0.1-6,0c-2.4,0.2-4.8,0.5-7.2,1c-2.3,0.5-4.7,1.2-6.9,2c-2.3,0.9-4.5,1.9-6.6,3
	c-2.1,1.2-4.1,2.5-6,4c-1.9,1.5-3.7,3.1-5.3,4.8c-6.6,6.9-11,15.6-12.7,24.5l-0.2,0.8l-0.1,0.8c-0.1,0.6-0.2,1.1-0.2,1.7
	c-0.1,1.1-0.3,2.2-0.3,3.3c-0.1,1-0.1,1.9-0.1,2.8c0,1.3,0.1,2.5,0.2,3.8c0.1,1.1,0.2,2.2,0.4,3.2c0.1,0.5,0.2,1.1,0.3,1.6
	s0.2,1.1,0.3,1.6c0,0.3,0.1,0.5,0.2,0.8l0.2,0.7c1-1.7,3-3.5,4-4.7C-1118.5,724.9-1116,722.5-1113.7,719.8z M-1101.1,701.3
	c-0.3,1.2-0.6,2.1-0.8,2.8s-0.4,1.3-0.6,1.6c-0.3,0.7-0.7,1.3-1.2,1.9c-0.5,0.5-1.1,1-1.8,1.4c-0.7,0.5-1.4,0.9-1.9,1.1
	c-0.5,0.2-0.8,0.3-1,0.3c-0.5-0.1-1.1-0.1-1.6-0.2s-1-0.1-1.5-0.1c-0.4-0.2-0.8-0.7-1-1.3c-0.2-0.7-0.4-1.5-0.4-2.6
	c0-1,0.6-2.2,1.8-3.7c1.2-1.5,2.2-2.3,3.1-2.3c0.5-0.7,1.2-1.5,1.9-2.3c0.3-0.2,0.7-0.4,1.3-0.6c0.5-0.2,1.1-0.2,1.8-0.2
	c0.8,0,1.4,0.2,1.8,0.5c0.4,0.3,0.6,0.8,0.6,1.4C-1100.8,699.9-1101,700.7-1101.1,701.3z M-1028.8,729.6c-0.6,3.2-1.4,6.3-2.5,9.1
	c-2.6,6.8-6.4,12.4-10.5,16.6c-2,2.1-4.1,4-6.2,5.5c-2,1.5-4,2.8-5.9,3.8c-3.7,2-6.9,3.1-9.1,3.8c-0.2,0.1-0.5,0.1-0.7,0.2
	c-0.1,0-0.2,0-0.2,0.1c-0.6,0.2-1.1,0.3-1.5,0.4h-0.1c-0.6,0.1-0.9,0.2-0.9,0.2s-0.2,0-0.6,0.1h-0.1h-0.1c-0.6,0.1-1.4,0.3-2.6,0.5
	c-2.2,0.3-5.6,0.7-9.8,0.5c-1.4,0-2.9-0.2-4.5-0.5c-0.8-0.1-1.6-0.3-2.4-0.4c-2.5-0.5-5.2-1.3-7.9-2.3c-5.5-2.1-11.3-5.6-16.5-10.6
	c-2.6-2.5-5-5.4-7.2-8.7c-2-3-3.6-6.3-5-9.9c2-2.5,6.4-8.3,7.1-8.9c4.6-3.7,5.9,7.8,8.7,9.3c7.4,4,16.9-6.6,20.7-11.8
	c0.7-0.9,1.3-1.6,1.8-2.1c0.5-0.4,1-0.6,1.4-0.6c0.2,0,0.4,0.1,0.6,0.2c0.1,0.2,0.2,0.3,0.2,0.6c0,1.4-0.6,3.8-1.7,7.1
	c-1.2,3.4-1.7,5.6-1.7,6.7c0,0.5,0.3,0.8,0.8,1s1.2,0.3,2.2,0.3c0.3,0,1-0.5,2.2-1.6c1.1-1.1,2.7-2.8,4.6-5c1.2-1.4,2.4-2.7,3.6-4
	c1.2-1.3,2.3-2.6,3.5-3.9c1-0.8,1.8-1.4,2.3-1.8c0.5-0.4,0.9-0.8,1.3-1.3c0.4-0.3,0.7-0.6,0.9-0.7c0.3-0.1,0.5-0.2,0.8-0.2
	c0.3,0,0.5,0.1,0.7,0.3s0.3,0.5,0.3,0.8c-0.3,2-0.5,3.7-0.7,4.9s-0.3,2-0.4,2.5c0,0.3-0.2,0.9-0.4,1.7c-0.3,0.8-0.6,1.9-1,3.2
	c-0.3,1.1-0.6,2-0.8,2.8c-0.2,0.8-0.3,1.4-0.3,1.9c0,0.4,0.1,0.8,0.2,1.1c0.1,0.3,0.3,0.5,0.6,0.6c0.8,0.1,1.5,0.1,1.9,0.1
	c1,0,3.4-2.5,7.3-7.4c3.9-5,6.7-7.4,8.4-7.4c1.3,0,3.1,1.4,5.4,4.3c2.4,2.9,4.7,4.3,6.9,4.3c0.7,0,1.5-0.2,2.4-0.7
	C-1032.7,733.8-1030.1,732.5-1028.8,729.6z M-1003.9,689.6v41.9h-9.5v-41.9H-1003.9L-1003.9,689.6z M-995.8,710.8
	c0-3.8-0.1-7-0.3-9.7h8.2l0.4,4.2h0.2c1.2-1.9,4.4-4.8,9.4-4.8c6.2,0,10.9,4.1,10.9,13.1v18h-9.5v-16.9c0-3.9-1.4-6.6-4.8-6.6
	c-2.6,0-4.2,1.8-4.8,3.5c-0.3,0.6-0.4,1.5-0.4,2.4v17.5h-9.5L-995.8,710.8L-995.8,710.8z M-953.5,701.1l4.1,14.1
	c0.8,2.5,1.3,5,1.7,7.4h0.2c0.5-2.5,1-4.8,1.7-7.4l3.9-14.1h10l-11.3,30.4h-9.5l-11.1-30.4H-953.5z M-917.8,692.6
	c0,2.6-2,4.7-5.1,4.7c-3,0-5-2.1-4.9-4.7c-0.1-2.7,1.9-4.8,5-4.8C-919.8,687.8-917.9,689.9-917.8,692.6z M-927.6,731.5v-30.4h9.5
	v30.4H-927.6z M-881.4,701.1c-0.1,1.9-0.3,4.5-0.3,9v17c0,5.8-1.2,10.6-4.6,13.7c-3.4,2.9-7.9,3.7-12.4,3.7c-4,0-8.2-0.8-11-2.4
	l1.9-7.2c1.9,1.1,5.3,2.3,8.8,2.3c4.5,0,7.9-2.4,7.9-8v-2h-0.1c-1.8,2.5-4.7,4-8.2,4c-7.5,0-12.9-6.1-12.9-14.9
	c0-9.8,6.3-16,13.8-16c4.2,0,6.8,1.8,8.3,4.3h0.1l0.3-3.6L-881.4,701.1L-881.4,701.1z M-891.2,713.5c0-0.6-0.1-1.3-0.2-1.7
	c-0.7-2.5-2.5-4.2-5.1-4.2c-3.4,0-6.2,3.1-6.2,8.7c0,4.5,2.2,8.1,6.2,8.1c2.4,0,4.4-1.6,5-3.9c0.3-0.7,0.3-1.7,0.3-2.5V713.5
	L-891.2,713.5z M-844.1,715.9c0,11.1-7.9,16.2-16.1,16.2c-8.9,0-15.7-5.8-15.7-15.7s6.5-16.1,16.2-16.1
	C-850.3,700.4-844.1,706.8-844.1,715.9z M-866.1,716.3c0,5.2,2.2,9.1,6.2,9.1c3.7,0,6-3.7,6-9.1c0-4.5-1.7-9.2-6-9.2
	C-864.4,707.1-866.1,711.8-866.1,716.3z M-838.2,711.1c0-4.5-0.1-7.4-0.3-10h8.1l0.3,5.6h0.3c1.6-4.4,5.3-6.3,8.2-6.3
	c0.9,0,1.3,0,2,0.1v8.9c-0.7-0.1-1.5-0.3-2.5-0.3c-3.5,0-5.9,1.9-6.5,4.8c-0.1,0.6-0.2,1.4-0.2,2.1v15.4h-9.5L-838.2,711.1
	L-838.2,711.1z M-998.6,746.4c-0.1-2.4-0.3-5.2-0.3-7.3h-0.1c-0.6,2-1.3,4.1-2.1,6.5l-3,8.3h-1.7l-2.8-8.1c-0.8-2.4-1.5-4.6-2-6.6
	l0,0c0,2.1-0.2,5-0.3,7.5l-0.5,7.3h-2.1l1.2-17h2.8l2.9,8.2c0.7,2.1,1.3,4,1.7,5.7h0.1c0.4-1.7,1-3.6,1.8-5.7l3-8.2h2.8l1.1,17h-2.1
	L-998.6,746.4z M-983.9,745.9h-6.6v6.1h7.4v1.8h-9.6v-17h9.2v1.8h-7v5.4h6.6L-983.9,745.9L-983.9,745.9z M-980.3,737.1
	c1.3-0.2,2.9-0.4,4.7-0.4c3.2,0,5.4,0.7,6.9,2.1c1.5,1.4,2.4,3.4,2.4,6.1c0,2.8-0.9,5-2.5,6.6s-4.2,2.5-7.5,2.5
	c-1.6,0-2.9-0.1-4-0.2L-980.3,737.1L-980.3,737.1z M-978.1,752.2c0.5,0.1,1.4,0.1,2.2,0.1c4.7,0,7.2-2.6,7.2-7.2
	c0-4-2.3-6.6-6.9-6.6c-1.1,0-2,0.1-2.6,0.2L-978.1,752.2L-978.1,752.2z M-961.3,736.9v17h-2.2v-17H-961.3z M-945.5,753.3
	c-0.8,0.4-2.4,0.8-4.5,0.8c-4.8,0-8.4-3-8.4-8.6c0-5.3,3.6-8.9,8.9-8.9c2.1,0,3.5,0.5,4,0.8l-0.5,1.8c-0.8-0.4-2-0.7-3.4-0.7
	c-4,0-6.6,2.5-6.6,7c0,4.2,2.4,6.8,6.5,6.8c1.3,0,2.7-0.3,3.6-0.7L-945.5,753.3z M-939.9,748.6l-1.8,5.3h-2.3l5.8-17h2.6l5.8,17
	h-2.3l-1.8-5.3H-939.9z M-934.4,746.8l-1.7-4.9c-0.4-1.1-0.6-2.1-0.9-3.1l0,0c-0.3,1-0.5,2-0.9,3.1l-1.7,4.9H-934.4L-934.4,746.8z
	 M-927.3,736.9h2.2v15.2h7.3v1.8h-9.5V736.9z"/>
</svg>
